<svg width="20" height="20" viewBox="0 0 20 20" fill="none" xmlns="http://www.w3.org/2000/svg">
<g filter="url(#filter0_d_252_28)">
<path fill-rule="evenodd" clip-rule="evenodd" d="M11.4262 6.00003L15.7046 1.72158C16.0985 1.32775 16.0985 0.689213 15.7046 0.295433C15.3108 -0.0984027 14.6723 -0.0984027 14.2785 0.295433L9.99998 4.57394L5.72148 0.295377C5.32765 -0.098459 4.68917 -0.098459 4.29533 0.295377C3.90156 0.689213 3.90156 1.32775 4.29533 1.72153L8.57383 5.99997L4.29533 10.2785C3.90156 10.6723 3.90156 11.3108 4.29533 11.7046C4.68917 12.0985 5.32765 12.0985 5.72148 11.7046L9.99998 7.42612L14.2785 11.7046C14.6723 12.0985 15.3108 12.0985 15.7046 11.7046C16.0985 11.3108 16.0985 10.6723 15.7046 10.2785L11.4262 6.00003Z" fill="#292929"/>
<path d="M10.7191 6.00003L11.0726 5.64648L15.3511 1.36803C15.5497 1.16944 15.5496 0.84751 15.3511 0.649012L15.3511 0.648987C15.1525 0.450413 14.8306 0.450413 14.632 0.648987L10.3535 4.92749L9.99998 5.28105L9.64642 4.92749L5.36793 0.64893C5.36793 0.648929 5.36793 0.648929 5.36793 0.648928C5.16936 0.450365 4.84749 0.450357 4.64891 0.648905C4.6489 0.648913 4.6489 0.648922 4.64889 0.64893M10.7191 6.00003L4.29533 1.72153C3.90156 1.32775 3.90156 0.689213 4.29533 0.295377L4.64889 0.64893M10.7191 6.00003L11.0726 6.35358L15.3511 10.632C15.5496 10.8306 15.5496 11.1525 15.3511 11.3511C15.1525 11.5497 14.8306 11.5496 14.6321 11.3511L14.632 11.3511L10.3535 7.07257L9.99998 6.71901L9.64642 7.07257L5.36793 11.3511C5.16935 11.5496 4.84746 11.5496 4.64889 11.3511C4.45039 11.1526 4.45035 10.8306 4.64889 10.632L4.29533 10.2785L4.64891 10.632L8.92739 6.35352L9.28094 5.99997L8.92738 5.64642L4.64889 1.36797L4.29987 1.71699L4.64889 1.36797M10.7191 6.00003L4.64889 1.36797M4.64889 0.64893C4.45035 0.847525 4.45039 1.16947 4.64889 1.36797M4.64889 0.64893L4.64889 1.36797" stroke="black"/>
</g>
<defs>
<filter id="filter0_d_252_28" x="0" y="0" width="20" height="20" filterUnits="userSpaceOnUse" color-interpolation-filters="sRGB">
<feFlood flood-opacity="0" result="BackgroundImageFix"/>
<feColorMatrix in="SourceAlpha" type="matrix" values="0 0 0 0 0 0 0 0 0 0 0 0 0 0 0 0 0 0 127 0" result="hardAlpha"/>
<feOffset dy="4"/>
<feGaussianBlur stdDeviation="2"/>
<feComposite in2="hardAlpha" operator="out"/>
<feColorMatrix type="matrix" values="0 0 0 0 0 0 0 0 0 0 0 0 0 0 0 0 0 0 0.25 0"/>
<feBlend mode="normal" in2="BackgroundImageFix" result="effect1_dropShadow_252_28"/>
<feBlend mode="normal" in="SourceGraphic" in2="effect1_dropShadow_252_28" result="shape"/>
</filter>
</defs>
</svg>
